<svg xmlns="http://www.w3.org/2000/svg" viewBox="0 0 90 90"><circle cx="45" cy="45" r="45" fill="#bdc3c7"/><path fill="#bdc3c7" d="M39.32 60.78h8.66V68h-8.66z"/><path fill="#464c63" d="M46.98 59.78h2V69h-2zM38.32 59.78h2V69h-2z"/><path fill="#464c63" d="M32.55 67h22.2v2h-22.2z"/><rect width="43.29" height="33.67" x="22" y="27.11" fill="#6b7082" rx="2.89" ry="2.89"/><path fill="#e1e1e6" d="M22 55.97h42.47v3.93H22z"/><path fill="#464c63" d="M62.41 61.78H24.89A3.89 3.89 0 0 1 21 57.9V30a3.89 3.89 0 0 1 3.89-3.89h37.52A3.89 3.89 0 0 1 66.29 30v27.9a3.89 3.89 0 0 1-3.88 3.88zM24.89 28.11A1.89 1.89 0 0 0 23 30v27.9a1.89 1.89 0 0 0 1.89 1.89h37.52a1.89 1.89 0 0 0 1.89-1.89V30a1.89 1.89 0 0 0-1.89-1.89z"/><path fill="#464c63" d="M21 54.97h45.29v2H21z"/><path fill="#93cfef" d="M67.23 22.77a2.62 2.62 0 0 0-3.7 0l-11.7 11.7a4.61 4.61 0 0 1 3.7 3.71l11.7-11.7a2.62 2.62 0 0 0 0-3.7"/><path fill="#464c63" d="M55.53 39.17a1 1 0 0 1-.3 0 1 1 0 0 1-.69-.77 3.61 3.61 0 0 0-2.9-2.9 1 1 0 0 1-.52-1.69l11.7-11.7a3.71 3.71 0 0 1 5.12 0 3.62 3.62 0 0 1 0 5.12l-11.7 11.7a1 1 0 0 1-.71.24zm-1.88-5.11a5.61 5.61 0 0 1 2.29 2.29l10.59-10.59a1.62 1.62 0 0 0 0-2.29 1.66 1.66 0 0 0-2.29 0z"/><path fill="#a2a5b1" d="M51.83 34.47l-5.13 5.12 3.7 3.7 5.13-5.12a4.61 4.61 0 0 0-3.7-3.71"/><path fill="#464c63" d="M50.41 44.71l-5.12-5.12 6.21-6.21.52.1a5.6 5.6 0 0 1 4.5 4.52l.09.52zm-2.29-5.12l2.29 2.29 4-4a3.6 3.6 0 0 0-2.29-2.29z"/><path fill="#fabd6b" d="M51.13 38.87a4.63 4.63 0 0 0-6.55 0c-1.64 1.64-1.58 6.3-1.58 7.22V47H44.41c1.54 0 5.27-.16 6.7-1.59a4.63 4.63 0 0 0 0-6.55"/><path fill="#464c63" d="M44.44 48H43a1 1 0 0 1-1-1v-.88c0-1.39 0-6.07 1.87-8a5.63 5.63 0 0 1 8 0 5.63 5.63 0 0 1 0 8C50.21 47.76 46.5 48 44.44 48zM44 46h.43c2.9 0 5.19-.5 6-1.29a3.63 3.63 0 0 0 0-5.13 3.72 3.72 0 0 0-5.13 0c-.98.96-1.36 3.99-1.3 6.42z"/></svg>